<?xml version="1.0" standalone="no"?>
<!DOCTYPE svg PUBLIC "-//W3C//DTD SVG 20010904//EN"
 "http://www.w3.org/TR/2001/REC-SVG-20010904/DTD/svg10.dtd">
<svg version="1.0" xmlns="http://www.w3.org/2000/svg"
 width="1024.000000pt" height="1024.000000pt" viewBox="0 0 1024.000000 1024.000000"
 preserveAspectRatio="xMidYMid meet">

<g transform="translate(0.000000,1024.000000) scale(0.100000,-0.100000)"
fill="#000000" stroke="none">
<path d="M4348 7654 c-87 -21 -156 -60 -224 -128 -109 -109 -160 -248 -151
-406 12 -194 117 -349 292 -431 89 -42 144 -49 402 -49 l235 0 29 29 29 29 0
262 c0 207 -3 275 -16 324 -36 139 -133 262 -259 327 -112 59 -218 72 -337 43z"/>
<path d="M5650 7654 c-178 -47 -321 -191 -371 -374 -9 -33 -13 -217 -16 -677
-5 -707 -2 -750 58 -872 68 -138 222 -250 374 -271 267 -36 518 150 565 420 8
45 10 265 8 715 -3 594 -5 655 -22 705 -31 95 -76 168 -142 230 -128 119 -298
166 -454 124z"/>
<path d="M3115 6461 c-91 -31 -129 -55 -195 -121 -105 -104 -160 -233 -160
-379 0 -215 142 -413 345 -481 60 -20 78 -20 772 -18 l710 3 86 43 c143 71
244 192 276 332 28 121 3 281 -60 386 -67 111 -208 215 -329 243 -29 7 -288
10 -720 10 -614 0 -680 -2 -725 -18z"/>
<path d="M6824 6462 c-79 -28 -161 -81 -215 -140 -57 -62 -115 -175 -129 -251
-6 -29 -10 -164 -10 -298 0 -255 5 -291 45 -307 9 -3 137 -6 285 -6 239 0 275
2 332 20 212 65 348 255 348 486 0 212 -133 409 -328 485 -80 31 -255 37 -328
11z"/>
<path d="M3098 5177 c-295 -101 -436 -461 -293 -752 54 -111 171 -208 297
-246 104 -32 235 -24 341 21 132 55 239 170 288 311 20 58 23 88 27 312 5 272
0 329 -29 358 -18 18 -36 19 -291 19 -258 -1 -277 -2 -340 -23z"/>
<path d="M4299 5177 c-146 -53 -250 -160 -311 -323 -23 -59 -23 -63 -26 -739
-2 -482 0 -697 8 -740 19 -98 65 -182 140 -256 127 -125 295 -175 453 -134
184 48 325 187 381 374 24 80 24 1345 1 1436 -45 174 -165 310 -333 376 -87
35 -226 37 -313 6z"/>
<path d="M5660 5186 c-215 -60 -372 -257 -387 -486 -18 -267 181 -508 447
-541 47 -6 98 -8 113 -5 16 3 27 2 25 -2 -2 -4 -25 -44 -53 -89 l-50 -82 -212
-1 c-225 0 -253 -5 -272 -47 -7 -15 -11 -109 -11 -262 0 -263 13 -348 67 -440
55 -94 161 -182 259 -216 35 -12 38 -16 71 -115 146 -449 529 -788 1009 -896
112 -25 350 -30 474 -9 575 95 1023 535 1136 1115 27 143 25 383 -6 510 -62
260 -163 456 -334 654 -94 108 -276 245 -401 302 l-55 25 0 52 c-1 250 -169
470 -407 532 -48 13 -162 15 -713 14 -492 -1 -666 -4 -700 -13z m1562 -765
c190 -52 342 -138 483 -272 230 -220 345 -490 346 -809 0 -301 -98 -551 -300
-764 -150 -157 -335 -262 -561 -317 -82 -20 -120 -23 -270 -23 -158 1 -185 3
-275 28 -301 82 -558 285 -690 546 -84 166 -118 315 -119 515 0 256 56 446
195 652 164 243 407 401 704 459 108 21 388 12 487 -15z"/>
<path d="M6878 4154 c-15 -8 -32 -23 -38 -34 -6 -11 -10 -130 -10 -308 l0
-290 -34 -56 c-70 -117 -53 -238 43 -303 101 -68 220 -23 272 103 21 51 40 69
263 257 322 271 316 265 316 315 0 33 -6 45 -32 67 -25 21 -39 26 -65 22 -37
-6 -42 -10 -200 -147 -60 -52 -164 -141 -231 -197 l-121 -102 -3 315 -3 316
-33 29 c-36 33 -80 37 -124 13z"/>
</g>
</svg>
